<?xml version="1.0" encoding="UTF-8" standalone="no"?>
<svg
   height="1920pt"
   preserveAspectRatio="xMidYMid meet"
   viewBox="0 0 1909 1920"
   width="1909pt"
   version="1.1"
   id="svg1"
   sodipodi:docname="topjekyllthemes-logo.svg"
   inkscape:version="1.4 (e7c3feb100, 2024-10-09)"
   xmlns:inkscape="http://www.inkscape.org/namespaces/inkscape"
   xmlns:sodipodi="http://sodipodi.sourceforge.net/DTD/sodipodi-0.dtd"
   xmlns="http://www.w3.org/2000/svg"
   xmlns:svg="http://www.w3.org/2000/svg">
  <defs
     id="defs1">
    <filter
       inkscape:collect="always"
       style="color-interpolation-filters:sRGB"
       id="filter3"
       x="-0.064674924"
       y="-0.067965202"
       width="1.1293499"
       height="1.135931">
      <feGaussianBlur
         inkscape:collect="always"
         stdDeviation="7.8602203"
         id="feGaussianBlur3" />
    </filter>
    <filter
       inkscape:collect="always"
       style="color-interpolation-filters:sRGB"
       id="filter4"
       x="-0.022446913"
       y="-0.022446913"
       width="1.0448938"
       height="1.0448938">
      <feGaussianBlur
         inkscape:collect="always"
         stdDeviation="13.322836"
         id="feGaussianBlur4" />
    </filter>
    <filter
       inkscape:collect="always"
       style="color-interpolation-filters:sRGB"
       id="filter5"
       x="-0.015994828"
       y="-0.015994828"
       width="1.0319897"
       height="1.0319897">
      <feGaussianBlur
         inkscape:collect="always"
         stdDeviation="8.8938875"
         id="feGaussianBlur5" />
    </filter>
    <filter
       inkscape:collect="always"
       style="color-interpolation-filters:sRGB"
       id="filter6"
       x="-0.011787764"
       y="-0.0089335448"
       width="1.0235755"
       height="1.0178671">
      <feGaussianBlur
         inkscape:collect="always"
         stdDeviation="3.8708211"
         id="feGaussianBlur6" />
    </filter>
    <filter
       inkscape:collect="always"
       style="color-interpolation-filters:sRGB"
       id="filter3-2"
       x="-0.060388334"
       y="-0.063460525"
       width="1.1207767"
       height="1.1269217">
      <feGaussianBlur
         inkscape:collect="always"
         stdDeviation="7.2000964"
         id="feGaussianBlur3-2" />
    </filter>
    <linearGradient
       id="b"
       gradientUnits="userSpaceOnUse"
       x1="177.629"
       y1="273.75201"
       x2="224.04601"
       y2="320.16901"
       gradientTransform="matrix(1.7913749,-0.60363126,0.6110748,1.7780202,546.84792,864.79608)">
      <stop
         offset="0"
         stop-color="#900"
         id="stop4"
         style="stop-color:#9900f1;stop-opacity:1;" />
      <stop
         offset="1"
         stop-color="#e80000"
         id="stop5"
         style="stop-color:#43006c;stop-opacity:1;" />
    </linearGradient>
    <linearGradient
       id="a"
       gradientUnits="userSpaceOnUse"
       x1="206.45799"
       y1="215.263"
       x2="283.13"
       y2="291.93399"
       gradientTransform="matrix(1.7913749,-0.60363126,0.6110748,1.7780202,546.84792,864.79608)">
      <stop
         offset="0"
         stop-color="#919191"
         id="stop2"
         style="stop-color:#919191;stop-opacity:0.67039114;" />
      <stop
         offset="1"
         stop-color="#ffffff"
         id="stop3" />
    </linearGradient>
  </defs>
  <sodipodi:namedview
     id="namedview1"
     pagecolor="#ffffff"
     bordercolor="#000000"
     borderopacity="0.25"
     inkscape:showpageshadow="2"
     inkscape:pageopacity="0.0"
     inkscape:pagecheckerboard="0"
     inkscape:deskcolor="#d1d1d1"
     inkscape:document-units="pt"
     inkscape:zoom="0.20155092"
     inkscape:cx="873.22845"
     inkscape:cy="2054.0715"
     inkscape:window-width="1920"
     inkscape:window-height="1128"
     inkscape:window-x="0"
     inkscape:window-y="0"
     inkscape:window-maximized="1"
     inkscape:current-layer="svg1"
     showgrid="false" />
  <path
     d="m 946.02185,2.2761497 c -5,2.4 -16.8,14.5000003 -22.7,23.4000003 -2.8,4.1 -9.5,14.7 -14.8,23.5 -23.6,38.6 -33.6,49.4 -45.8,49.4 -11.8,0 -19.4,-5.7 -53.7,-40 -28.7,-28.7 -34.1,-33.2 -44.2,-36.7 -8.8,-3 -17.5,1 -24.3,11.3 -5.6,8.4 -10.5,19.6 -20,45.9 -10.2,28.3 -16.9,42.5 -23.2,49.5 -7,7.7 -11.8,9.6 -21.2,7.9 -6.5,-1.2 -20.7,-7.9 -30.1,-14.2 -3.6,-2.3 -15,-10 -25.4,-17.1 -42.1,-28.4 -56.4,-30.6 -66.7,-10.4 -5,9.9 -7.8,22.5 -11.9,54.3 -5.2,40.9 -10.9,56.9 -21.8,61.7 -3.8,1.7 -5.9,2 -13.1,1.5 -10,-0.6 -20.7,-3.8 -42.7,-12.8 -23.1,-9.5 -33.5,-13.5 -40.8,-15.8 -22.4,-6.9 -34.4,-4 -39.7,9.7 -3.1,7.9 -3.7,30.9 -1.5,56.5 1.9,22 2.1,43.4 0.5,50.9 -1.7,7.9 -5.6,14.6 -10.4,17.3 -9.6,5.7 -23.8,5.4 -58.5,-1.1 -30.6,-5.7 -38.5,-6.6 -51,-6.2 -9.4,0.3 -12.3,0.8 -15.6,2.5 -15,7.9 -15,22.7 0.2,73.3 7.8,25.8 10.4,37.8 10.4,48 -0.1,17.8 -8,24.7 -31.7,27.9 -4.3,0.6 -21.3,1.6 -37.8,2.1 -31.5,1 -38.7,1.8 -49.8,5.1 -5,1.5 -7.9,3 -11.1,6.2 -11.1,10.7 -8.1,25.2 13.6,64.7 16.8,30.6 21.8,41.8 23.8,53.3 3.4,19.2 -8.6,27.8 -54.2,38.7 -44.300009,10.7 -56.100009,15.1 -64.100009,23.9 -7,7.8 -7.2,15 -0.7,27.9 4.9,9.5 9.4,15.5 30,39.7 35.100009,41.2 39.300009,54.1 22.6,69.2 -7.3,6.7 -17.7,12.5 -43.5,24.8 -35.2,16.6 -48.4,25.3 -53,34.8 -6.9,14.2 2.9,27.4 43.4,58.2 23.1,17.6 36.7,30.3 40.5,38 3.8,7.7 3.5,15.4 -1,22.9 -4.8,7.9 -17.5,19.8 -37,34.60005 -22.7,17.2 -33.1,26 -38.9,33 -6.3,7.5 -8,10.7 -8.6999999,16.4 -0.9,6.1 1.0999999,11.1 6.4999999,17 7,7.5 17,13.5 47.8,28.6 37.7,18.5 46.300009,24.2 51.400009,34.2 4.4,8.6 0.5,20.8 -11.900009,37.3 -3.2,4.4 -12.1,15.2 -19.6,24 -25.1,29.3 -32.4,40.7 -33.4,52.1 -0.5,7.2 0.8,10.4 6.7,15.7 8.1,7.3 19.4,11.4 58.600009,21 36.2,8.9 47.4,13.7 54.9,23 2.3,2.9 3.1,5 3.4,9.5 0.8,11 -4,23.6 -20.2,53.6 -14.4,26.5 -17.2,32.4 -20.6,42.5 -5,14.8 -3.9,23.7 3.6,30 8.2,6.8 20.3,8.8 60,10.1 40.5,1.3 52.2,3.1 61.4,9.5 6.2,4.3 8.5,10.1 8.3,21 -0.1,10.9 -2.1,20.1 -10.8,50 -8.3,28.4 -10.5,38.8 -10.5,49.5 0,16.3 6.1,22.9 22.5,24.5 9,0.9 21.2,-0.6 51,-6.2 39.6,-7.4 57.6,-7.1 65.9,1.2 5.9,5.9 7.9,14 7.9,32.5 0,8.5 -0.8,24 -1.8,34.4 -2.3,25.4 -1.8,47.7 1.3,55.7 7.4,18.8 22.5,18.3 71.7,-2.4 31.2,-13 45.9,-17.7 55.7,-17.7 9.1,0 16.9,5.3 21.2,14.4 4.8,10.1 6.3,17.6 12.6,64.1 3.9,28.2 9.1,43.4 16.9,49.3 3.1,2.4 4.3,2.7 12,2.7 8.2,0 9.1,-0.3 18.1,-4.6 5.2,-2.5 16,-9 24,-14.4 31.3,-21.3 39.1,-26.3 46.2,-29.8 19.4,-9.4 29.8,-7.4 39.8,8 5.7,8.6 9.4,17.4 19.5,45.6 18,50 28,61.8 46.5,54.8 8.4,-3.2 17.6,-10.7 34.9,-28.5 33.5,-34.6 41.7,-41.7 52.1,-45.7 6.6,-2.5 10.4,-2.4 16.6,0.5 9.5,4.4 20.5,18 36.9,45.6 17.5,29.4 29.3,44.1 38.9,48.6 6.5,3 9.8,3 16.5,-0.1 9.8,-4.6 19.3,-16.3 37.39995,-46.2 19.5,-32.1 29.1,-44.1 38.9,-48.3 13.5,-5.8 23.8,0.6 58.3,36.4 29.4,30.5 41.4,39.6 52.3,39.6 14,0 22.6,-12.7 38.7,-57.5 16.8,-46.5 24.9,-58.5 39.7,-58.5 10.4,0 20.7,5.3 54.1,27.7 31,20.8 41.8,26.4 52.3,27.1 6.2,0.4 7.8,0.1 11.3,-1.8 10.5,-6 14.9,-19.9 21.2,-67 4.7,-35.4 8.8,-49 16.9,-56.3 10.7,-9.8 23.9,-7.6 70.2,11.6 25.5,10.6 37.8,14.6 47.2,15.4 14.6,1.2 22.3,-4.7 25.5,-19.5 1.4,-6.5 1.4,-28.9 0.1,-43.7 -4.9,-55.5 -2.4,-70.8 12.5,-77.1 9.7,-4.1 26.2,-2.8 68,5.2 16.1,3.1 21.2,3.7 33.5,3.8 15.7,0.1 19.2,-0.7 24.4,-5.3 4.8,-4.3 6.6,-9.5 6.6,-19.1 0,-10.3 -2.5,-21.8 -10.9,-50 -7.7,-26.3 -10,-35.6 -10.7,-45.5 -1.3,-16 3.7,-24.1 17.4,-28.4 10.7,-3.3 17.8,-4.1 49.8,-5.1 16.6,-0.5 33.6,-1.5 37.9,-2.1 21.1,-2.9 30.4,-9.4 31.3,-21.7 0.8,-11 -3.9,-23.3 -20.1,-53.1 -13.1,-24.2 -20.2,-39.2 -22.1,-46.7 -2.2,-8.4 -2,-15.6 0.4,-20.3 5.4,-10.8 18.5,-16.1 69,-28.4 31.7,-7.8 45.1,-14 50.6,-23.4 2.3,-3.9 2.6,-5.2 2.2,-10.7 -1,-11.6 -8.3,-23 -33.8,-52.6 -30.8,-35.7 -37.3,-49.3 -29.7,-62.2 5.5,-9.4 16.9,-16.6 53.9,-34.3 23.6,-11.2 34.3,-17.3 41.5,-23.9 12.9,-11.7 12.6,-23 -1.2,-38.3 -4.8,-5.4 -18.6,-16.8 -41,-33.9 -16.3,-12.40005 -28,-23.50005 -32.5,-31.00005 -2.9,-4.9 -3.5,-6.7 -3.5,-11.8 0,-13.9 7.8,-22.3 52.3,-56.5 35.8,-27.4 43.3,-41.7 29.8,-56.8 -6.9,-7.7 -15.7,-12.9 -49.6,-29.7 -42.1,-20.7 -50.8,-27.4 -51.8,-39.8 -0.9,-11.1 6.4,-23.4 31.4,-52.8 19.7,-23.1 26.8,-32.6 31,-41.4 4.3,-9 5.1,-14.4 3,-20.1 -4.5,-11.7 -18.5,-18.2 -61.5,-28.6 -36.2,-8.7 -48.7,-13.5 -56.1,-21.5 -9.7,-10.6 -7.3,-23.4 11,-57.9 27.9,-52.4 31.9,-64.9 24.7,-75.7 -7.1,-10.4 -19.2,-13 -70.7,-14.8 -20.7,-0.7 -31,-1.5 -37.6,-2.9 -19.1,-4 -25.3,-10.5 -25.4,-26.6 0,-10.2 2.4,-21.1 10.6,-49.3 8.9,-30.4 10.6,-38.8 10.7,-50.2 0.1,-7.9 -0.3,-10.2 -2.1,-13.7 -2.8,-5.3 -7.4,-8.8 -13.5,-10.4 -8,-2 -28.4,-0.5 -49.7,3.6 -32,6.1 -37.2,6.8 -50,6.9 -11.8,0.1 -12.8,-0.1 -18.3,-2.7 -4.4,-2.2 -6.3,-3.9 -8.4,-7.5 -5.9,-10.1 -6.5,-22.4 -3.1,-66.6 1.8,-24.1 2,-30.5 1.1,-38.7 -1.4,-12 -4.4,-19.4 -9.9,-23.5 -3.2,-2.5 -4.8,-2.9 -11.5,-3.3 -10.5,-0.4 -19.9,2.1 -44.4,12.1 -43.6,17.7 -56.6,21.7 -66.1,20.4 -16.5,-2.2 -22,-14.4 -28.4,-62.1 -4.8,-36 -6.8,-45.2 -12,-55.5 -1.6,-3.1 -4.5,-7.1 -6.4,-8.8 -10.9,-9.5 -24.6,-5.4 -58.1,17.3 -32.2,21.8 -34.7,23.5 -44,28 -13,6.3 -22.1,7.5 -29.2,3.7 -3.7,-2 -10.9,-10.8 -14.6,-18 -4.2,-7.9 -8.5,-18.9 -16.2,-40.7 -10.3,-29.4 -15.9,-40.9 -23.6,-48.7 -5.8,-5.8 -11,-7.5 -17.7,-5.8 -11.2,2.8 -20.6,10.3 -46.7,37.5 -30.3,31.5 -39.3,38.4 -51.5,39.3 -13.6,1 -23.7,-9.3 -47.1,-47.8 -19.49995,-32.2 -26.69995,-41.6000003 -36.29995,-47.1000003 -6,-3.40000006 -13,-3.80000006 -18.6,-1.2 z"
     fill="#000000"
     stroke="none"
     stroke-width="0.2"
     vector-effect="non-scaling-stroke"
     id="path1"
     style="fill:#480082;stroke:#000000;stroke-opacity:0.73630452;fill-opacity:1" />
  <circle
     style="fill:#7f2aff;fill-opacity:0.761139;stroke-width:5.94074;stroke-linecap:round;stroke-linejoin:round;filter:url(#filter4)"
     id="path2"
     cx="954.5"
     cy="-960"
     r="712.23169"
     transform="scale(1,-1)" />
  <circle
     style="fill:#3e2852;fill-opacity:0.92036182;stroke-width:5.56561;stroke-linecap:round;stroke-linejoin:round;filter:url(#filter5)"
     id="path2-5"
     cx="954.5"
     cy="-960"
     r="667.25726"
     transform="scale(1,-1)" />
  <text
     xml:space="preserve"
     style="font-size:1456.71px;line-height:1.7;font-family:'Arial Black';-inkscape-font-specification:'Arial Black, ';text-align:start;writing-mode:lr-tb;direction:ltr;text-anchor:start;mix-blend-mode:normal;fill:#ffffff;fill-opacity:0.761139;stroke-width:56.4402;stroke-linecap:round;stroke-linejoin:round;filter:url(#filter6)"
     x="467.16412"
     y="1479.9487"
     id="text2"
     transform="matrix(0.72885259,0,0,0.72885259,304.15222,283.47989)"><tspan
       sodipodi:role="line"
       id="tspan2"
       style="font-style:normal;font-variant:normal;font-weight:800;font-stretch:normal;font-size:1456.71px;font-family:'Open Sans';-inkscape-font-specification:'Open Sans Ultra-Bold';fill:#ffffff;stroke-width:56.4402"
       x="467.16412"
       y="1479.9487">T</tspan></text>
  <path
     opacity="0.3"
     d="m 1217.2632,800.00577 c -0.4714,1.3468 -0.613,2.82707 -0.4628,4.41673 0,0 1.9104,31.54705 -4.7079,44.91029 l -281.34574,567.70181 0.0169,0 c -20.19024,41.741 -2.73851,91.9611 39.26347,112.4946 42.00224,20.532 92.71484,3.6304 113.70384,-37.7179 l 0.02,0.018 281.3458,-567.70377 c 5.5017,-11.1059 32.9574,-31.1012 32.9574,-31.1012 1.3634,-0.84943 2.4533,-1.867 3.2416,-3.05866 l 0.1317,-0.21821 c 0.1445,-0.23576 0.3095,-0.45825 0.4307,-0.70563 7.2542,-14.63857 -28.0972,-46.66614 -78.9634,-71.52917 -50.8679,-24.86497 -97.9842,-33.15483 -105.2384,-18.51629 -0.1229,0.24725 -0.2037,0.51133 -0.3015,0.76841 z"
     id="path2-53"
     style="stroke-width:1.8852" />
  <path
     sodipodi:type="star"
     style="fill:#ffd16b;fill-opacity:0.856591;stroke:#000000;stroke-width:10.079;stroke-linecap:round;stroke-linejoin:round;stroke-dasharray:none;stroke-opacity:0.736305;filter:url(#filter3)"
     id="path3"
     inkscape:flatsided="false"
     sodipodi:sides="5"
     sodipodi:cx="-820.9881"
     sodipodi:cy="546.23511"
     sodipodi:r1="194.30724"
     sodipodi:r2="97.15361"
     sodipodi:arg1="0.94076242"
     sodipodi:arg2="1.5690809"
     inkscape:rounded="0"
     inkscape:randomized="0"
     d="m -706.50769,703.23682 -114.31375,-59.84825 -114.10776,60.24008 21.59416,-127.21297 -92.55296,-89.90773 127.6597,-18.77369 56.90689,-115.8061 57.30386,115.61018 127.72334,18.33562 -92.24395,90.22472 z"
     inkscape:transform-center-x="0.36548179"
     inkscape:transform-center-y="-15.122059"
     transform="matrix(0.83374093,-0.00465674,0.00465674,0.83374093,2068.3359,127.28332)" />
  <path
     sodipodi:type="star"
     style="fill:#ffcc00;fill-opacity:0.873839;stroke:#000000;stroke-width:10.079;stroke-linecap:round;stroke-linejoin:round;stroke-dasharray:none;stroke-opacity:0.736305;filter:url(#filter3-2)"
     id="path3-1"
     inkscape:flatsided="false"
     sodipodi:sides="5"
     sodipodi:cx="-820.9881"
     sodipodi:cy="546.23511"
     sodipodi:r1="194.30724"
     sodipodi:r2="97.15361"
     sodipodi:arg1="0.94076242"
     sodipodi:arg2="1.5690809"
     inkscape:rounded="0"
     inkscape:randomized="0"
     d="m -706.50769,703.23682 -114.31375,-59.84825 -114.10776,60.24008 21.59416,-127.21297 -92.55296,-89.90773 127.6597,-18.77369 56.90689,-115.8061 57.30386,115.61018 127.72334,18.33562 -92.24395,90.22472 z"
     inkscape:transform-center-x="-2.0243391"
     inkscape:transform-center-y="-5.2447688"
     transform="matrix(0.35455203,0.03207941,-0.0343221,0.37933894,1525.7392,845.01595)" />
  <path
     fill="url(#a)"
     d="m 1211.1234,794.40911 c -0.4736,1.34662 -0.6171,2.8267 -0.4629,4.41673 0,0 1.9122,31.54721 -4.7096,44.91013 l -281.34731,567.69963 0.0205,0.018 c -20.18836,41.7412 -2.73851,91.961 39.26346,112.4948 41.99838,20.5314 92.71478,3.6303 113.70378,-37.718 l 0.02,0.018 281.3458,-567.70393 c 5.4997,-11.10598 32.9574,-31.10119 32.9574,-31.10119 1.3635,-0.84943 2.4534,-1.86507 3.2417,-3.05866 l 0.1299,-0.21827 c 0.1445,-0.23384 0.3096,-0.45834 0.4307,-0.70555 7.2544,-14.6387 -28.0974,-46.66438 -78.9616,-71.529 -50.8678,-24.86496 -97.9841,-33.15496 -105.2384,-18.51627 -0.1229,0.24708 -0.2035,0.51134 -0.3013,0.76825 z"
     id="path3-5"
     style="fill:url(#a);stroke-width:1.8852" />
  <path
     fill="url(#b)"
     d="m 1258.5963,1067.0434 -202.8906,409.3955 0.1042,0.05 c -14.8843,29.311 -51.6247,41.9377 -81.86548,27.1549 -30.24084,-14.7828 -43.95875,-52.0735 -29.64943,-81.6684 L 1073.937,1160.3794 c 0,0 15.0285,-19.8171 42.1564,-32.4293 27.1277,-12.6105 48.0995,-7.5345 77.8634,-17.5631 29.7621,-10.0287 64.6398,-43.3429 64.6398,-43.3429 z"
     id="path5"
     style="fill:url(#b);stroke-width:1.8852" />
  <ellipse
     transform="matrix(0.89839009,0.43919841,-0.44407437,0.89598993,0,0)"
     fill="#333333"
     cx="1540.3702"
     cy="182.35265"
     rx="63.624752"
     ry="16.633968"
     id="ellipse5"
     style="stroke-width:1.88522" />
  <path
     opacity="0.3"
     fill="#ffffff"
     d="m 1210.6592,798.82378 c 0,0 1.8265,31.71852 -4.7096,44.91015 l -281.34551,567.70177 0.0185,0.018 c -20.18826,41.7413 -2.73851,91.9611 39.26345,112.4948 a 85.373493,84.683903 5.1699715 0 0 22.45368,7.3518 c -27.34574,-24.5355 -36.38613,-64.8114 -19.70053,-99.3059 l -0.0205,-0.018 275.7635,-556.44107 c 0,0 -27.8693,-31.09984 -31.7249,-76.71143 z"
     id="path6"
     style="fill:#ffffff;fill-opacity:1;stroke-width:1.8852" />
  <g
     fill="#ffffff"
     id="g10"
     transform="matrix(1.8851555,0.17056645,-0.16918874,1.8699286,720.1264,643.5118)">
    <circle
       opacity="0.5"
       cx="226.53101"
       cy="261.806"
       r="3.506"
       id="circle6" />
    <circle
       opacity="0.5"
       cx="249.51401"
       cy="287.22699"
       r="5.2849998"
       id="circle7" />
    <circle
       opacity="0.5"
       cx="214.429"
       cy="317.45901"
       r="9.915"
       id="circle8" />
    <circle
       opacity="0.5"
       cx="198.375"
       cy="335.79501"
       r="5.2859998"
       id="circle9" />
    <circle
       opacity="0.5"
       cx="219.42999"
       cy="375.008"
       r="3.506"
       id="circle10" />
  </g>
</svg>
